<svg width="1246" height="874" viewBox="0 0 1246 874" fill="none" xmlns="http://www.w3.org/2000/svg">
<path d="M286.785 18.8738L553.377 144.227C598.391 139.311 645.523 138.576 693.824 142.555C973.701 165.614 1186.88 338.214 1169.97 528.067C1153.05 717.92 912.46 853.134 632.584 830.076C395.275 810.524 100.063 500.617 100.063 500.617L156.444 444.564L60.7808 66.3801L286.785 169.526L286.785 18.8738Z" fill="#EF6E4A"/>
<path d="M1022.66 684.568C1069.43 684.568 1109.56 677.222 1143.04 662.531C1176.02 647.841 1201.13 627.351 1218.37 601.062C1235.11 574.386 1243.48 543.071 1243.48 507.117C1243.48 459.178 1232.15 417.039 1209.5 380.698C1186.86 343.971 1155.1 315.556 1114.24 295.452C1072.88 275.349 1025.37 265.297 971.701 265.297C924.928 265.297 885.048 272.643 852.061 287.334C818.581 301.638 793.471 322.128 776.732 348.804C759.499 375.479 750.883 406.601 750.883 442.168C750.883 490.107 762.207 532.44 784.855 569.167C807.503 605.508 839.506 633.923 880.863 654.413C921.728 674.516 968.993 684.568 1022.66 684.568Z" fill="#E3BC23"/>
<path d="M659.228 684.568C706.001 684.568 746.127 677.222 779.607 662.531C812.594 647.841 837.704 627.351 854.936 601.062C871.676 574.386 880.046 543.071 880.046 507.117C880.046 459.178 868.722 417.039 846.074 380.698C823.426 343.971 791.669 315.556 750.805 295.452C709.448 275.349 661.936 265.297 608.27 265.297C561.497 265.297 521.617 272.643 488.63 287.334C455.151 301.638 430.041 322.128 413.301 348.804C396.069 375.479 387.453 406.601 387.453 442.168C387.453 490.107 398.777 532.44 421.425 569.167C444.073 605.508 476.075 633.923 517.432 654.413C558.297 674.516 605.562 684.568 659.228 684.568Z" fill="#E3BC23"/>
<path d="M1075.43 540.702C1086.64 524.568 1090.78 503.239 1087.85 476.713C1084.87 449.855 1078.03 426.101 1067.31 405.451C1056.21 384.494 1042.32 368.57 1025.66 357.681C1008.96 346.46 990.843 341.515 971.316 342.848C947.605 344.467 930.142 353.342 918.928 369.475C911.5 379.909 905.945 408.005 905.945 408.005L950.15 432.208L906.513 433.464C906.513 433.464 916.524 484.23 927.627 505.187C938.345 525.837 952.054 541.772 968.755 552.994C985.419 563.883 1003.52 568.662 1023.04 567.329C1046.75 565.71 1064.22 556.835 1075.43 540.702Z" fill="#272727"/>
<path d="M652.996 539.214C664.1 522.089 668.088 499.402 664.961 471.153C661.795 442.55 654.777 417.234 643.906 395.205C632.648 372.847 618.644 355.836 601.894 344.171C585.104 332.152 566.946 326.81 547.419 328.142C523.707 329.761 506.3 339.132 495.196 356.256C487.838 367.33 482.481 397.214 482.481 397.214L526.88 423.172L483.231 424.317C483.231 424.317 493.609 478.4 504.867 500.758C515.738 522.787 529.568 539.81 546.357 551.829C563.107 563.494 581.246 568.66 600.773 567.327C624.485 565.709 641.892 556.338 652.996 539.214Z" fill="#272727"/>
<path d="M868.98 499.412C1041.9 350.797 1189.36 443.457 1245.28 505.38L1239.78 447.88L1223.28 390.88L1151.78 307.38L1033.78 263.88L766.006 190.582L375.639 251.239L386.28 499.412C480.198 380.632 798.303 394.132 868.98 499.412Z" fill="#EF6E4A"/>
<ellipse cx="45.6243" cy="31.1369" rx="45.6243" ry="31.1369" transform="matrix(-1 0 0 1 857.543 316.778)" fill="#272727"/>
<ellipse cx="45.6243" cy="31.1369" rx="45.6243" ry="31.1369" transform="matrix(-1 0 0 1 796.501 193.235)" fill="#272727"/>
<ellipse cx="80.6297" cy="31.1369" rx="80.6297" ry="31.1369" transform="matrix(-0.969939 -0.24335 -0.24335 0.969939 719.533 256.376)" fill="#272727"/>
<ellipse cx="881.972" cy="255.509" rx="63.7908" ry="31.1369" transform="rotate(144.702 881.972 255.509)" fill="#272727"/>
<path d="M859.562 558.91C1032.48 707.525 1181.86 620.833 1237.78 558.91C1216.78 624.38 1189.53 655.956 1159.6 718.139L1024.1 793.963L766.007 873.578L60.8706 860.273V66.4626C331.471 718.139 679.532 749.166 859.562 558.91Z" fill="#EF6E4A"/>
</svg>
